<svg width="85" height="90" viewBox="0 0 85 90" fill="none" xmlns="http://www.w3.org/2000/svg">
<path d="M79.4709 14.6741L45.7999 0.644495C44.7742 0.219011 43.6747 0 42.5643 0C41.4539 0 40.3544 0.219011 39.3287 0.644495L5.65774 14.6741C2.51862 15.9718 0.466797 19.0408 0.466797 22.443C0.466797 57.2538 20.5466 81.3146 39.3112 89.1361C41.3806 89.9954 43.713 89.9954 45.7823 89.1361C60.8115 82.8754 84.6443 61.2523 84.6443 22.443C84.6443 19.0408 82.5924 15.9718 79.4709 14.6741ZM42.5731 78.2631L42.5555 11.4473L73.4031 24.3019C72.8243 50.8528 59.0052 70.0909 42.5731 78.2631Z" fill="#835EC7"/>
</svg>
