<svg width="33" height="32" viewBox="0 0 33 32" fill="none" xmlns="http://www.w3.org/2000/svg">
<path d="M0.5 16C0.5 7.16344 7.66344 0 16.5 0V0C25.3366 0 32.5 7.16344 32.5 16V16C32.5 24.8366 25.3366 32 16.5 32V32C7.66344 32 0.5 24.8366 0.5 16V16Z" fill="white"/>
<path d="M25.8915 16.216C25.8915 15.584 25.8355 14.984 25.7395 14.4H16.6995V18.008H21.8755C21.6435 19.192 20.9635 20.192 19.9555 20.872V23.272H23.0435C24.8515 21.6 25.8915 19.136 25.8915 16.216Z" fill="#4285F4"/>
<path d="M16.6996 25.6C19.2916 25.6 21.4596 24.736 23.0436 23.272L19.9556 20.872C19.0916 21.448 17.9956 21.8 16.6996 21.8C14.1956 21.8 12.0756 20.112 11.3156 17.832H8.13159V20.304C9.70759 23.44 12.9476 25.6 16.6996 25.6Z" fill="#34A853"/>
<path d="M11.3154 17.832C11.1154 17.256 11.0114 16.64 11.0114 16C11.0114 15.36 11.1234 14.744 11.3154 14.168V11.696H8.13136C7.47536 12.992 7.09937 14.448 7.09937 16C7.09937 17.552 7.47536 19.008 8.13136 20.304L11.3154 17.832Z" fill="#FBBC05"/>
<path d="M16.6996 10.2C18.1156 10.2 19.3796 10.688 20.3796 11.64L23.1156 8.90403C21.4596 7.35203 19.2916 6.40002 16.6996 6.40002C12.9476 6.40002 9.70759 8.56003 8.13159 11.696L11.3156 14.168C12.0756 11.888 14.1956 10.2 16.6996 10.2Z" fill="#EA4335"/>
</svg>
