<svg width="85" height="97" viewBox="0 0 85 97" fill="none" xmlns="http://www.w3.org/2000/svg">
<path d="M60.014 60.2442L42.0887 78.1695L24.1634 60.2442C10.7289 60.8267 0 71.8186 0 85.3847V87.1885C0 92.1678 4.03977 96.2075 9.01902 96.2075H75.1585C80.1377 96.2075 84.1775 92.1678 84.1775 87.1885V85.3847C84.1775 71.8186 73.4486 60.8267 60.014 60.2442ZM2.55539 14.9988L3.75792 15.2807V26.2538C2.44265 27.043 1.50317 28.4146 1.50317 30.0681C1.50317 31.6464 2.36749 32.9617 3.58882 33.7696L0.657637 45.4756C0.338213 46.772 1.05222 48.1061 2.08565 48.1061H9.93971C10.9731 48.1061 11.6871 46.772 11.3677 45.4756L8.43654 33.7696C9.65786 32.9617 10.5222 31.6464 10.5222 30.0681C10.5222 28.4146 9.5827 27.043 8.26743 26.2538V16.3705L20.6686 19.358C19.0527 22.5898 18.038 26.1974 18.038 30.0681C18.038 43.3523 28.8045 54.1188 42.0887 54.1188C55.373 54.1188 66.1394 43.3523 66.1394 30.0681C66.1394 26.1974 65.1436 22.5898 63.5089 19.358L81.6033 14.9988C85.023 14.1721 85.023 9.90682 81.6033 9.08008L45.8279 0.436859C43.3852 -0.14562 40.811 -0.14562 38.3684 0.436859L2.55539 9.06129C-0.845533 9.88803 -0.845533 14.1721 2.55539 14.9988Z" fill="#1A6FCC"/>
</svg>
