<svg xmlns="http://www.w3.org/2000/svg" xmlns:xlink="http://www.w3.org/1999/xlink" viewBox="0 0 226.49 315.36"><defs><style>.cls-1{fill:url(#linear-gradient);}</style><linearGradient id="linear-gradient" x1="178.14" y1="270.79" x2="47.61" y2="44.69" gradientUnits="userSpaceOnUse"><stop offset="0" stop-color="#8250df"/><stop offset="1" stop-color="#218bff"/></linearGradient></defs><g id="Layer_2" data-name="Layer 2"><g id="Layer_2-2" data-name="Layer 2"><path class="cls-1" d="M156.33,31.81,125,0,0,125.82l30.77,30.4ZM21.25,125.72,125,21.33l10.18,10.35L30.76,135.12ZM131.44,70.63,6.42,196.45l30.77,30.4L162.75,102.43ZM37.18,205.75l-9.51-9.4L131.39,92l10.18,10.34Zm182.89-85.43-31.3-31.81-125,125.82,30.77,30.4ZM85,214.23,188.72,109.84l10.18,10.35L94.5,223.63Zm110.2-55.09L70.17,285l30.77,30.4L226.49,190.94ZM100.92,294.26l-9.51-9.4L195.14,180.47l10.18,10.34Z"/></g></g></svg>