<svg xmlns="http://www.w3.org/2000/svg" xmlns:xlink="http://www.w3.org/1999/xlink" viewBox="0 0 538.68 194.31"><defs><style>.cls-1{fill:url(#linear-gradient);}.cls-2{fill:url(#linear-gradient-2);}</style><linearGradient id="linear-gradient" x1="109.76" y1="166.85" x2="29.33" y2="27.54" gradientUnits="userSpaceOnUse"><stop offset="0" stop-color="#8250df"/><stop offset="1" stop-color="#218bff"/></linearGradient><linearGradient id="linear-gradient-2" x1="148.22" y1="89.2" x2="538.68" y2="89.2" xlink:href="#linear-gradient"/></defs><g id="Layer_2" data-name="Layer 2"><g id="Layer_2-2" data-name="Layer 2"><path class="cls-1" d="M96.32,19.6,77,0,0,77.52,19,96.26ZM13.09,77.46,77,13.14l6.27,6.38L19,83.25ZM81,43.52,4,121l19,18.73,77.37-76.66ZM22.91,126.77,17.05,121,81,56.66,87.23,63ZM135.6,74.14l-19.29-19.6-77,77.52,19,18.73ZM52.37,132l63.91-64.32,6.27,6.38L58.23,137.79Zm67.9-33.95-77,77.53,18.95,18.73,77.36-76.66ZM62.18,181.31l-5.86-5.79,63.92-64.32,6.27,6.37Z"/><path class="cls-2" d="M178.47,79.83c-1.13-4.26-4.14-6.71-8.51-6.71-5.27,0-8.47,2.57-8.47,6.79.2,2.49,1.33,3.82,3.87,5a15.26,15.26,0,0,0,2.38,1c.66.23,1.6.54,2.77.9,2.22.66,4.06,1.24,5.5,1.71s3,1.06,4.68,1.72a24.13,24.13,0,0,1,7.22,4.22c3,2.49,4.1,5.5,4.26,10-.12,10.92-8.82,16.78-21.74,16.66-6.36,0-11.51-1.4-15.49-4.18a15.5,15.5,0,0,1-6.72-12l11.95-.93c.89,4.8,4.91,7.49,10.22,7.49,5.74,0,9.52-2.34,9.64-6.75-.12-3-1.91-4.92-5.39-6.52a32.45,32.45,0,0,0-3.35-1.4c-1-.35-2.3-.74-3.83-1.21-1.71-.51-3.08-.94-4.13-1.29s-2.23-.74-3.52-1.25a21.55,21.55,0,0,1-5.58-3,9.8,9.8,0,0,1-3.51-4.21,13.44,13.44,0,0,1-1.21-6.32c0-6.83,3.94-11.71,10-13.93A29.55,29.55,0,0,1,170,63.83c5.7,0,10.38,1.29,14.09,3.86a15.2,15.2,0,0,1,6.36,11.2Zm23.83,30.6a23.61,23.61,0,0,1,0-24A21.43,21.43,0,0,1,211,78.5a26.17,26.17,0,0,1,11.86-2.69c8.59,0,16.12,3.63,20.53,10.61a23.61,23.61,0,0,1,0,24,21.79,21.79,0,0,1-8.7,7.92A26.13,26.13,0,0,1,222.82,121C214.2,121,206.67,117.37,202.3,110.43Zm29.46-2.62a13.83,13.83,0,0,0,0-18.77,12.13,12.13,0,0,0-8.94-3.67A12,12,0,0,0,213.89,89a13.83,13.83,0,0,0,0,18.77,12,12,0,0,0,8.93,3.71A12.23,12.23,0,0,0,231.76,107.81ZM288,105.12l10.3,4.17a20.18,20.18,0,0,1-8.39,8.59A25.08,25.08,0,0,1,277.48,121c-8.62,0-16.15-3.67-20.52-10.61a23.61,23.61,0,0,1,0-24,21.43,21.43,0,0,1,8.66-7.92,26.17,26.17,0,0,1,11.86-2.69A25.08,25.08,0,0,1,289.93,79a20.18,20.18,0,0,1,8.39,8.59L288,91.77a11.28,11.28,0,0,0-10.54-6.63,12,12,0,0,0-8.93,3.7,12.94,12.94,0,0,0-3.67,9.56,13,13,0,0,0,3.67,9.61,11.94,11.94,0,0,0,8.93,3.74A11.28,11.28,0,0,0,288,105.12Zm19.11-36.38A6.47,6.47,0,0,1,305.18,64a6.39,6.39,0,0,1,1.95-4.68,6.5,6.5,0,0,1,4.76-1.95A6.66,6.66,0,0,1,318.52,64a6.47,6.47,0,0,1-1.95,4.76,6.4,6.4,0,0,1-4.68,2A6.51,6.51,0,0,1,307.13,68.74Zm-.9,7.73h11.24v44H306.23Zm22,34a23.61,23.61,0,0,1,0-24,21.49,21.49,0,0,1,8.66-7.92,26.24,26.24,0,0,1,11.87-2.69c8.59,0,16.12,3.63,20.53,10.61a23.61,23.61,0,0,1,0,24,21.88,21.88,0,0,1-8.71,7.92A26.12,26.12,0,0,1,348.75,121C340.12,121,332.59,117.37,328.22,110.43Zm29.47-2.62a13.86,13.86,0,0,0,0-18.77,12.14,12.14,0,0,0-8.94-3.67A12,12,0,0,0,339.81,89a13.83,13.83,0,0,0,0,18.77,12.05,12.05,0,0,0,8.94,3.71A12.24,12.24,0,0,0,357.69,107.81Zm58.25-43.36h11.94v56h-12V98.8H393.57v21.62h-12v-56h12V89.27h22.4Zm33.58,12v22c0,8.59,2.77,13.08,9.45,13.08,3.55,0,6.28-1.17,8.19-3.55s2.89-5.55,2.89-9.53v-22h11.24v44H470.52l-.47-6.48c-2.65,4.72-7.61,7.1-14.87,7.1-6,0-10.3-1.91-12.92-5.78s-3.94-9.44-3.94-16.82v-22Zm83.15,5.66a23.82,23.82,0,0,1,6,16.31,23.65,23.65,0,0,1-6,16.28A20.46,20.46,0,0,1,517.92,121c-8,0-13.23-2.38-15.65-7.1l-.47,6.48H491V60.47h11.24V82.91c2.5-4.49,8.31-7.1,15.65-7.1A20.41,20.41,0,0,1,532.67,82.13Zm-8.94,25.68a12.8,12.8,0,0,0,3.63-9.37,13,13,0,0,0-3.59-9.4,12.66,12.66,0,0,0-17.83,0,13.83,13.83,0,0,0,0,18.77,12.16,12.16,0,0,0,8.93,3.71A12,12,0,0,0,523.73,107.81Z"/></g></g></svg>